HIERARCHY
ROOT Hips
{
  OFFSET 0 0 0
  CHANNELS 6 Xposition Yposition Zposition Zrotation Yrotation Xrotation
  JOINT LeftThigh
  {
    OFFSET 8.409438 0 -5.917753
    CHANNELS 3 Zrotation Yrotation Xrotation
    JOINT LeftLeg
    {
      OFFSET 0 0 -42.358652
      CHANNELS 3 Zrotation Yrotation Xrotation
      JOINT LeftFoot
      {
        OFFSET 0 0 -39.357303
        CHANNELS 3 Zrotation Yrotation Xrotation
      }
    }
  }
  JOINT RightThigh
  {
    OFFSET -8.409438 0 -5.917753
    CHANNELS 3 Zrotation Yrotation Xrotation
    JOINT RightLeg
    {
      OFFSET 0 0 -42.358652
      CHANNELS 3 Zrotation Yrotation Xrotation
      JOINT RightFoot
      {
        OFFSET 0 0 -39.357303
        CHANNELS 3 Zrotation Yrotation Xrotation
      }
    }
  }
  JOINT SpineLow
  {
    OFFSET 0 0 4.719101
    CHANNELS 3 Zrotation Yrotation Xrotation
    JOINT SpineMid
    {
      OFFSET 0 0 12.899191
      CHANNELS 3 Zrotation Yrotation Xrotation
      JOINT Chest
      {
        OFFSET 0 0 12.899191
        CHANNELS 3 Zrotation Yrotation Xrotation
        JOINT LeftShoulder
        {
          OFFSET 7.550562 1.41573 9.438202
          CHANNELS 3 Zrotation Yrotation Xrotation
          JOINT LeftArm
          {
            OFFSET 9.155056 0 4.247191
            CHANNELS 3 Zrotation Yrotation Xrotation
            JOINT LeftForearm
            {
              OFFSET 0 0 25.771955
              CHANNELS 3 Zrotation Yrotation Xrotation
              JOINT LeftHand
              {
                OFFSET 0 0 25.197169
                CHANNELS 3 Zrotation Yrotation Xrotation
              }
            }
          }
        }
        JOINT RightShoulder
        {
          OFFSET -7.550562 1.41573 9.438202
          CHANNELS 3 Zrotation Yrotation Xrotation
          JOINT RightArm
          {
            OFFSET -9.155056 0 4.247191
            CHANNELS 3 Zrotation Yrotation Xrotation
            JOINT RightForearm
            {
              OFFSET 0 0 -25.771955
              CHANNELS 3 Zrotation Yrotation Xrotation
              JOINT RightHand
              {
                OFFSET 0 0 -25.197169
                CHANNELS 3 Zrotation Yrotation Xrotation
              }
            }
          }
        }
        JOINT Neck
        {
          OFFSET 0 0 15.101124
          CHANNELS 3 Zrotation Yrotation Xrotation
          JOINT Head
          {
            OFFSET 0 0 11.325843
            CHANNELS 3 Zrotation Yrotation Xrotation
            End Site
            {
              OFFSET 0 0 14.157303
            }
          }
        }
      }
    }
  }
}
MOTION
Frames: 17
Frame Time: 0.0
0.0  93.25843  0.0  -0.158605  -32.387804  -91.085943  11.853318  -13.495382  2.50381  8.352025  0.918029  15.618088  8.531523  2.145836  2.945267  -8.490355  -0.465733  -14.088088  7.260135  9.749409  13.359611  4.538165  1.595974  -0.10238  2.420413  -1.87482  0.014636  6.627058  -5.120185  -0.148134  6.627058  -5.120185  -0.148134  -22.396446  33.375059  -14.395172  129.207214  49.56562  -146.541968  -22.241604  -2.009956  103.508341  71.279898  -11.335349  4.928674  0.440424  -2.925589  26.244619  63.288723  47.758599  -1.028384  -5.562036  -16.292361  -115.098242  41.449336  -1.148479  -19.309521  -1.468916  10.098756  8.799345  -1.245888  7.554883  6.60683  
0.0  93.25843  0.0  -0.261899  -32.500151  -91.035413  11.970146  -13.826859  2.322222  8.571782  1.267781  16.371598  8.32842  2.068165  2.809637  -8.709295  -0.663619  -14.132157  7.771992  9.867271  13.690245  4.405965  1.685837  -0.155882  2.381096  -1.886561  0.004801  6.520299  -5.151437  -0.173152  6.520299  -5.151437  -0.173152  -21.793274  33.455133  -14.039285  128.798095  48.682137  -146.870492  -21.576873  -4.06687  104.440136  71.922498  -10.636591  5.172074  0.541972  -3.062579  26.49917  62.409627  47.698526  -1.48481  -5.093705  -15.96097  -115.128476  41.289567  -1.367442  -18.686067  -1.164541  10.067881  8.853637  -1.01861  7.535989  6.642399  
0.0  93.25843  0.0  -0.31469  -32.352792  -91.031446  11.539199  -14.078768  1.770724  9.021144  1.513389  17.446659  8.388138  2.053509  2.826812  -8.682086  -0.711074  -13.992227  8.034632  9.986299  13.894371  4.291307  1.711652  -0.17384  2.336285  -1.889368  0.006415  6.397495  -5.159466  -0.165507  6.397495  -5.159466  -0.165507  -21.246975  33.502948  -13.712041  128.892772  47.796071  -146.953949  -20.879846  -5.836029  104.949697  72.432394  -10.324287  5.894659  0.678391  -3.149818  26.681216  61.36402  47.661429  -2.073067  -4.888743  -15.366768  -115.065605  41.03199  -1.454387  -17.87151  -1.042627  10.05837  8.778025  -0.925991  7.530705  6.583821  
0.0  93.25843  0.0  -0.667778  -32.224416  -91.177986  11.31514  -14.652451  1.428926  9.443638  1.733532  18.584661  8.483231  2.061815  2.915888  -8.304369  -0.87654  -13.359897  8.277523  10.059213  14.003781  3.713532  1.764172  -0.335636  2.310332  -1.961181  0.053133  6.323537  -5.360135  -0.042584  6.323537  -5.360135  -0.042584  -20.618149  33.760533  -13.322898  129.311701  47.016699  -146.847461  -20.357576  -7.31766  105.126949  72.642129  -10.352687  7.006457  0.950235  -3.049665  26.859362  60.335383  47.658262  -2.643115  -4.980293  -14.597521  -114.996922  40.816719  -1.413618  -16.848429  -0.960068  10.10797  8.67861  -0.863266  7.569207  6.507991  
0.0  93.25843  0.0  -0.826431  -31.312417  -91.136286  10.716401  -15.003362  0.781324  9.485152  1.968041  19.541268  8.50621  2.030756  2.949115  -8.46283  -0.767738  -12.933401  8.178232  10.064552  13.860854  3.720548  1.767283  -0.327565  2.227845  -1.975149  0.033746  6.09934  -5.396705  -0.090217  6.09934  -5.396705  -0.090217  -20.005741  33.999794  -12.734935  129.832807  46.24645  -146.77931  -19.507453  -8.686785  106.421978  72.76078  -9.482084  7.366197  1.1785  -3.103646  27.049059  59.379873  47.686695  -3.109153  -5.388001  -13.211585  -114.715119  40.113462  -0.963509  -15.910373  -1.072982  10.093523  8.586416  -0.946002  7.5569  6.440937  
0.0  93.25843  0.0  -1.045456  -29.881813  -91.020996  10.087122  -15.428218  0.054064  9.25718  2.221968  20.392706  8.632761  2.016777  3.09643  -9.00057  -0.641247  -12.499629  7.919563  9.896118  13.620646  3.409419  1.81417  -0.404062  2.149643  -2.01834  0.02883  5.886028  -5.514472  -0.101139  5.886028  -5.514472  -0.101139  -19.74163  34.401677  -12.461199  130.280313  45.413489  -146.847223  -15.835216  -10.101107  109.635137  73.913125  -7.061943  4.060816  1.247991  -2.996111  26.983985  58.463193  47.712978  -3.506022  -7.28651  -11.18247  -113.935058  38.431014  -0.906661  -15.976613  -1.558924  10.093644  8.363869  -1.305868  7.550693  6.282584  
0.0  93.25843  0.0  -1.279943  -27.963316  -90.846965  9.489817  -15.892575  -0.741078  8.732472  2.494965  21.093898  8.521561  1.963895  3.093913  -9.511596  -0.38785  -12.00142  7.657739  9.695731  13.326752  3.353308  1.767936  -0.357173  2.026565  -2.0208  -0.023367  5.553274  -5.517219  -0.233908  5.553274  -5.517219  -0.233908  -19.087757  34.693668  -11.820151  130.469867  44.589657  -147.114447  -12.965426  -11.812287  111.393187  74.586803  -5.783226  1.526322  1.484582  -3.184544  27.048697  57.45939  47.691272  -3.914591  -9.029677  -9.087862  -113.262598  36.979985  -0.57504  -16.050188  -2.022701  9.993763  8.332146  -1.651017  7.469568  6.266598  
0.0  93.25843  0.0  -1.520748  -25.617025  -90.635551  8.940254  -16.368704  -1.582342  7.978969  2.771082  21.645843  8.385104  1.915663  3.121029  -10.067082  -0.074403  -11.489031  7.126294  9.419795  13.001789  3.18213  1.686466  -0.292618  1.907838  -2.016992  -0.080344  5.232752  -5.50293  -0.379622  5.232752  -5.502931  -0.379622  -18.41822  34.974219  -11.202181  130.408055  43.711126  -147.449374  -11.311752  -13.524302  112.434597  74.600845  -4.91469  0.023268  1.699816  -3.430995  27.012924  56.224594  47.705151  -4.408414  -11.075173  -6.654965  -112.667336  35.310753  -0.308812  -16.083309  -2.675205  9.822782  8.341318  -2.137182  7.332467  6.284063  
0.0  93.25843  0.0  -1.765817  -22.890447  -90.395278  8.431324  -16.835262  -2.477152  6.955827  3.053803  22.012473  8.176607  1.852003  3.116542  -10.809831  0.284835  -10.98396  6.417087  9.131627  12.649305  2.874749  1.629541  -0.2407  1.811529  -2.008172  -0.148513  4.974469  -5.474412  -0.557514  4.974468  -5.474411  -0.557514  -17.817562  35.230049  -10.529452  130.290363  42.878271  -147.755485  -10.111811  -15.497479  113.715134  74.240685  -3.574369  -1.423464  1.7959  -3.737806  26.8941  54.839304  47.872223  -4.915726  -13.599788  -3.877596  -112.220216  33.259483  -0.217974  -15.744629  -3.6431  9.672906  8.322783  -2.859274  7.2071  6.285559  
0.0  93.25843  0.0  -2.018868  -19.913786  -90.152645  7.992661  -17.254992  -3.429036  5.77321  3.304875  22.269753  8.100101  1.796863  3.221023  -11.923683  0.618924  -10.43671  5.955812  8.79078  12.330954  2.410165  1.57296  -0.194213  1.747336  -2.008438  -0.225458  4.805008  -5.470177  -0.762844  4.805008  -5.470177  -0.762844  -17.138655  35.506197  -9.740442  130.04783  42.066913  -148.138783  -12.948658  -13.331889  106.471213  76.132139  -10.204726  4.874023  1.737485  -4.008448  26.789776  53.462263  48.387483  -5.32865  -12.919707  -6.974797  -113.133991  37.353446  0.137337  -13.854183  -4.821628  9.543791  8.300248  -3.739313  7.094621  6.287058  
0.0  93.25843  0.0  -2.273772  -16.668614  -89.927735  7.456401  -17.646309  -4.44102  4.537134  3.533473  22.462932  7.861669  1.702439  3.213103  -13.407725  0.987236  -9.847307  5.052751  8.462818  11.826513  2.050015  1.597258  -0.154096  1.699601  -2.012616  -0.298924  4.680423  -5.476996  -0.960311  4.680423  -5.476996  -0.960311  -16.365872  35.699239  -8.922587  129.881655  41.174622  -148.605364  -16.653537  -13.493282  103.815021  75.29544  -12.558562  9.940124  1.636147  -4.225143  26.566687  52.171137  49.233727  -5.627024  -11.176732  -9.540049  -114.418344  40.990862  1.237657  -11.654771  -6.215803  9.431065  8.182717  -4.779557  6.992651  6.220525  
0.0  93.25843  0.0  -2.514447  -13.206127  -89.74763  6.805476  -18.029029  -5.468501  3.336693  3.743028  22.621616  7.621645  1.612387  3.253345  -15.018808  1.36717  -9.170465  4.056934  8.117154  11.308237  1.512058  1.60662  -0.174893  1.655681  -2.015747  -0.359375  4.565202  -5.482061  -1.122384  4.565202  -5.482061  -1.122384  -15.400604  35.776168  -7.989627  129.829656  40.375338  -149.346962  -16.531148  -12.253357  102.780385  77.510131  -13.147197  10.825941  1.557567  -4.293451  26.217419  50.978435  50.371171  -5.971821  -11.995329  -10.666596  -114.786939  41.403513  1.800476  -11.245065  -7.670224  9.317277  7.993544  -5.863905  6.89059  6.100836  
0.0  93.25843  0.0  -2.731028  -9.52479  -89.58321  6.036835  -18.408692  -6.522703  2.129795  3.947819  22.715019  7.180896  1.523315  3.204682  -16.571909  1.799364  -8.471607  2.592111  7.820062  10.663139  1.44718  1.621185  -0.104464  1.615855  -2.007603  -0.414971  4.460501  -5.456779  -1.270718  4.460501  -5.456779  -1.270718  -14.38968  35.67622  -7.120934  129.464523  39.60419  -150.431665  -16.022595  -11.88189  102.236475  78.955432  -13.243564  10.565139  1.484038  -4.400224  25.692146  49.78093  51.712229  -6.107888  -13.772436  -10.698503  -114.87387  40.708308  2.259131  -11.182635  -9.265743  9.183414  7.718114  -7.052498  6.773971  5.918006  
0.0  93.25843  0.0  -2.91896  -5.857021  -89.501349  5.333915  -18.763361  -7.484259  0.837489  4.136884  22.681394  6.793632  1.460521  3.20466  -17.562844  2.261575  -7.609706  1.013312  7.437386  10.018227  0.834339  1.637941  -0.154779  1.622545  -1.994781  -0.465398  4.482607  -5.418175  -1.408417  4.482607  -5.418175  -1.408417  -13.524703  35.520753  -6.221059  128.658911  38.987665  -151.791581  -14.999758  -11.8213  102.400163  79.985009  -12.156305  9.307983  1.318659  -4.43761  25.072218  48.401657  53.170756  -6.191168  -15.646103  -10.660547  -115.065138  40.300987  2.910298  -11.063903  -10.685612  9.02187  7.610233  -8.112163  6.637287  5.856827  
0.0  93.25843  0.0  -3.075805  -1.853613  -89.361112  4.3817  -19.055775  -8.429063  -0.593049  4.325799  22.449744  6.332442  1.384139  3.098438  -18.698081  2.729264  -6.852271  -0.620348  7.004914  9.376993  0.654527  1.617607  -0.059934  1.603514  -1.965663  -0.543395  4.435931  -5.333795  -1.618339  4.435931  -5.333795  -1.618338  -12.532476  35.288574  -5.159289  127.455145  38.50553  -153.288555  -14.295963  -12.446411  101.769576  80.13749  -11.527007  8.29236  1.228313  -4.25991  24.467529  46.491112  54.694956  -6.726944  -17.315109  -10.669746  -115.291747  40.492326  3.955379  -10.6772  -12.441921  8.829942  7.38894  -9.421937  6.476668  5.714513  
0.0  93.25843  0.0  -3.052648  0.910559  -89.7766  4.558633  -19.161253  -8.585092  -2.113208  4.49728  21.95681  6.089144  1.348554  3.125901  -18.310095  3.533611  -5.588006  -2.083665  6.542943  8.802473  0.273993  1.588639  0.006862  2.077635  -1.882068  -0.372844  5.718431  -5.107839  -1.182313  5.718431  -5.107839  -1.182313  -14.102981  34.678189  -5.544609  126.146193  38.1259  -155.006625  -14.558932  -13.095883  100.399485  79.578201  -11.667884  8.435617  -0.556106  -3.947362  22.578369  43.779137  56.169444  -7.880099  -18.878182  -10.372549  -115.396752  41.091411  5.191124  -10.429522  -15.191502  8.30493  6.711598  -11.466889  6.067475  5.236437  
0.0  93.25843  0.0  -3.115114  5.060194  -89.6831  3.443052  -19.342245  -9.168132  -3.649717  4.699225  21.223054  5.840344  1.209316  3.060791  -19.355418  4.075341  -4.823702  -3.688692  5.958947  8.252264  -0.196928  1.579584  0.071854  2.089195  -1.812639  -0.416633  5.751474  -4.914186  -1.296801  5.751474  -4.914186  -1.296801  -13.505014  34.298296  -4.905621  124.874127  37.85063  -156.950117  -15.230207  -13.123997  99.195501  79.207931  -11.608634  9.112726  -0.807968  -3.565564  21.469419  40.654605  57.549871  -9.321204  -20.402269  -9.689198  -115.405645  41.885959  6.451617  -10.347643  -17.105583  7.891616  6.442299  -12.894046  5.744753  5.050929  
